<svg width="1600" height="900" viewBox="0 0 1600 900" fill="none" xmlns="http://www.w3.org/2000/svg">
  <defs>
    <linearGradient id="bg" x1="85" y1="60" x2="1500" y2="850" gradientUnits="userSpaceOnUse">
      <stop stop-color="#6B0B04"/>
      <stop offset="0.48" stop-color="#421110"/>
      <stop offset="1" stop-color="#4E3A3A"/>
    </linearGradient>
    <radialGradient id="hero" cx="0" cy="0" r="1" gradientUnits="userSpaceOnUse" gradientTransform="translate(414 392) rotate(32) scale(410 410)">
      <stop stop-color="#55100B"/>
      <stop offset="1" stop-color="#211317"/>
    </radialGradient>
    <filter id="goldGlow" x="-20%" y="-20%" width="140%" height="140%">
      <feGaussianBlur stdDeviation="18"/>
    </filter>
  </defs>
  <rect width="1600" height="900" rx="44" fill="url(#bg)"/>
  <rect x="74" y="74" width="1452" height="752" rx="28" fill="#FFFFFF" fill-opacity="0.05"/>
  <rect x="112" y="108" width="650" height="578" rx="26" fill="url(#hero)"/>
  <circle cx="388" cy="366" r="218" fill="#8C1F15" fill-opacity="0.22"/>
  <path d="M415 256C485 247 553 287 572 354C587 409 568 472 523 515C475 559 402 570 337 540C282 515 241 461 238 395C234 313 307 268 415 256Z" fill="none" stroke="#C8AA72" stroke-width="16" stroke-linecap="round"/>
  <path d="M485 282C418 317 372 373 370 438C368 480 385 520 420 548C355 549 293 517 265 460C236 400 253 325 308 286C357 250 430 240 485 282Z" fill="none" stroke="#D9C192" stroke-width="13" stroke-linecap="round"/>
  <path d="M408 403C382 465 369 535 401 590C420 623 457 646 502 654" fill="none" stroke="#D7C097" stroke-width="13" stroke-linecap="round"/>
  <circle cx="534" cy="194" r="18" fill="#FFF0A8" filter="url(#goldGlow)"/>
  <rect x="790" y="108" width="304" height="267" rx="22" fill="#18090B"/>
  <text x="850" y="195" fill="#DAB548" font-family="Arial, Helvetica, sans-serif" font-size="60" font-weight="700">AUDITIONS</text>
  <rect x="816" y="240" width="252" height="92" rx="16" fill="#541514"/>
  <rect x="1118" y="108" width="304" height="267" rx="22" fill="#070707"/>
  <rect x="1190" y="196" width="154" height="154" rx="77" fill="#A68177"/>
  <rect x="790" y="399" width="304" height="287" rx="22" fill="#411110"/>
  <text x="846" y="560" fill="#D9C08E" font-family="Arial, Helvetica, sans-serif" font-size="54" font-weight="700">MERRY</text>
  <text x="830" y="620" fill="#D9C08E" font-family="Arial, Helvetica, sans-serif" font-size="54" font-weight="700">CHRISTMAS</text>
  <rect x="1118" y="399" width="304" height="287" rx="22" fill="#2C0E12"/>
  <rect x="1160" y="438" width="220" height="206" rx="20" fill="#84444B"/>
  <text x="168" y="770" fill="#FFF8F2" fill-opacity="0.95" font-family="Arial, Helvetica, sans-serif" font-size="44" font-weight="700">Elegant event and seasonal promotions</text>
</svg>
